<?xml version="1.0" encoding="UTF-8" standalone="no"?>
<!-- Created with Inkscape (http://www.inkscape.org/) -->

<svg
   xmlns:dc="http://purl.org/dc/elements/1.1/"
   xmlns:cc="http://creativecommons.org/ns#"
   xmlns:rdf="http://www.w3.org/1999/02/22-rdf-syntax-ns#"
   xmlns:svg="http://www.w3.org/2000/svg"
   xmlns="http://www.w3.org/2000/svg"
   xmlns:sodipodi="http://sodipodi.sourceforge.net/DTD/sodipodi-0.dtd"
   xmlns:inkscape="http://www.inkscape.org/namespaces/inkscape"
   width="120"
   height="120"
   viewBox="0 0 31.749999 31.750001"
   version="1.1"
   id="svg4149"
   inkscape:version="0.92.3 (2405546, 2018-03-11)"
   sodipodi:docname="cookit_user.svg">
  <defs
     id="defs4143" />
  <sodipodi:namedview
     id="base"
     pagecolor="#ffffff"
     bordercolor="#666666"
     borderopacity="1.0"
     inkscape:pageopacity="0.0"
     inkscape:pageshadow="2"
     inkscape:zoom="1.979899"
     inkscape:cx="45.803062"
     inkscape:cy="100.16417"
     inkscape:document-units="mm"
     inkscape:current-layer="layer1"
     showgrid="false"
     inkscape:window-width="1366"
     inkscape:window-height="703"
     inkscape:window-x="0"
     inkscape:window-y="0"
     inkscape:window-maximized="1"
     units="px" />
  <metadata
     id="metadata4146">
    <rdf:RDF>
      <cc:Work
         rdf:about="">
        <dc:format>image/svg+xml</dc:format>
        <dc:type
           rdf:resource="http://purl.org/dc/dcmitype/StillImage" />
        <dc:title />
      </cc:Work>
    </rdf:RDF>
  </metadata>
  <g
     inkscape:label="Camada 1"
     inkscape:groupmode="layer"
     id="layer1"
     transform="translate(0,-265.24998)">
    <g
       id="g4101"
       transform="translate(-173.51654,218.33917)"
       style="fill:#000000">
      <path
         style="stroke-width:0.86105168;fill:#000000"
         d="m 715.81055,177.30078 c -33.13709,0 -60,26.86291 -60,60 0.005,18.40552 8.45733,35.79047 22.92968,47.16211 2.65192,-18.44077 18.43986,-32.13835 37.07032,-32.16211 18.60809,0.0177 34.38863,13.67823 37.07226,32.0918 14.45224,-11.35677 22.9017,-28.7113 22.92774,-47.0918 0,-33.13709 -26.86291,-60 -60,-60 z m 1.11718,5.00781 c 2.7989,0.0201 6.3887,0.40444 9.08985,1.10157 4.81583,1.2429 9.0106,3.85417 10.63281,6.62109 0.48567,0.82832 0.71253,0.99181 1.74219,1.24609 0.65132,0.1608 1.94195,0.65014 2.86914,1.08789 2.1916,1.03475 4.63939,3.41403 5.59766,5.43946 1.36297,2.88124 1.40062,6.18475 0.10156,8.92969 -1.18957,2.51335 -4.40176,5.2233 -7.44141,6.27734 l -1.17969,0.4082 v 2.19336 6.68945 h -0.0644 c 0.0181,0.30767 0.0298,0.61568 0.0352,0.92383 0,12.42641 -10.07359,22.5 -22.5,22.5 -12.42641,0 -22.5,-10.07359 -22.5,-22.5 0.009,-0.49091 0.0334,-0.98141 0.0742,-1.4707 v -6.30664 c 0,-1.8595 -0.0653,-2.35938 -0.31055,-2.35938 -0.1711,0 -1.10764,-0.39968 -2.08008,-0.88867 -10.00687,-5.03176 -8.26449,-17.54253 2.89453,-20.78515 1.09414,-0.31793 1.34241,-0.49834 1.83008,-1.33008 2.08483,-3.55604 7.83297,-6.49663 12.08789,-7.08985 4.25492,-0.59321 6.32224,-0.70753 9.12109,-0.6875 z m -1.10742,6.04297 c -3.01648,0.0256 -6.02539,0.39668 -8.58398,1.13477 -3.70405,1.06858 -6.31262,2.88218 -6.58399,4.57812 -0.0895,0.55943 -0.41451,1.20373 -0.84375,1.67188 -0.60816,0.66335 -0.96049,0.81423 -2.73437,1.16992 -4.6868,0.9398 -7.18973,3.51488 -6.37891,6.56055 0.54074,2.03108 2.3071,3.42086 5.25781,4.13867 3.05488,0.74305 4.89063,1.46215 4.89063,5.58594 v 3.26953 h 15.01953 14.90039 v -3.15821 c 0,-4.32335 2.01295,-4.7934 5.00195,-5.48632 0.83577,-0.19373 1.9453,-0.54082 2.4668,-0.77149 1.91652,-0.8474 3.6841,-2.99291 3.69922,-4.48828 0.009,-1.02428 -0.52977,-2.30632 -1.37109,-3.26172 -1.06084,-1.20464 -2.89973,-2.051 -5.39649,-2.48437 -1.59791,-0.27736 -1.97332,-0.43035 -2.49414,-1.00977 -0.33736,-0.37532 -0.67151,-0.96002 -0.74219,-1.30078 -0.36404,-1.75177 -1.52305,-2.87732 -4.22851,-4.10352 -3.04604,-1.38055 -7.47009,-2.08233 -11.87891,-2.04492 z m -14.97656,33.95117 c -0.0212,0.30751 -0.0329,0.6156 -0.0352,0.92383 0,8.28427 6.71573,15 15,15 8.28427,0 15,-6.71573 15,-15 -0.005,-0.30833 -0.0204,-0.61642 -0.0449,-0.92383 z m 14.9668,37.49805 c -16.32205,0.0137 -29.63828,13.07387 -29.96875,29.39258 9.1053,5.2849 19.44088,8.08098 29.96875,8.10742 10.52958,-0.0194 20.86864,-2.80943 29.97851,-8.08984 -0.32112,-16.32939 -13.64597,-29.40162 -29.97851,-29.41016 z"
         transform="scale(0.26458333)"
         id="path4043"
         inkscape:connector-curvature="0"
         sodipodi:nodetypes="scccccscscccccccccccsccssccccccccccccscccscccccccccccscccccccc" />
    </g>
  </g>
</svg>
